<svg width="500" height="500" viewBox="0 0 500 500" fill="none" xmlns="http://www.w3.org/2000/svg">
<path d="M117.286 299.465C135.02 300.867 152.53 305.3 169.221 311.36C171.642 312.283 174.296 313.379 176.719 314.34C178.322 315.051 182.456 316.914 184.098 317.651C185.7 318.471 189.765 320.496 191.328 321.322C192.908 322.218 196.785 324.442 198.391 325.356C202.492 327.882 199.065 333.955 194.767 331.698C193.098 330.628 189.531 328.274 187.916 327.223C186.481 326.361 182.701 324.153 181.194 323.258C179.63 322.419 175.801 320.364 174.296 319.562C172.825 318.847 168.761 316.89 167.23 316.154C157.761 311.811 147.715 308.069 137.733 305.029C130.999 302.995 124.175 301.183 117.248 299.784C117.159 299.769 117.099 299.682 117.118 299.594C117.134 299.513 117.207 299.459 117.286 299.465Z" fill="#6DB3F2"/>
<path d="M181.186 325.339C162.614 323.008 144.074 320.502 125.646 317.265C134.943 318.233 144.255 318.969 153.571 319.625C162.889 320.271 172.221 320.837 181.536 321.311C184.287 321.545 183.952 325.579 181.186 325.339Z" fill="#6DB3F2"/>
<path d="M185.952 320.368C177.505 310.612 167.082 302.523 156.057 295.824C152.343 293.534 148.467 291.531 144.568 289.566C148.613 291.227 152.652 292.935 156.546 294.939C166.384 299.867 175.698 305.936 184.07 313.107C185.758 314.58 187.376 316.031 189.008 317.721C190.888 319.797 187.759 322.536 185.952 320.368Z" fill="#6DB3F2"/>
<g opacity="0.5">
<path d="M231.043 337.687C231.043 337.687 171.838 255.479 120.43 274.829C75.5238 291.731 108.666 384.455 231.043 337.687Z" fill="#61D6FF"/>
</g>
<path d="M168.844 354.345C166.215 354.345 163.63 354.26 161.088 354.09C143.115 352.892 127.584 347.343 116.173 338.043C102.686 327.05 95.7844 311.18 98.1617 296.627C100.072 284.93 107.725 275.753 119.158 271.45C131.743 266.713 145.725 267.276 160.713 273.124C172.397 277.682 184.727 285.465 197.359 296.257C218.672 314.463 233.358 334.723 233.972 335.577C234.627 336.486 234.823 337.648 234.501 338.722C234.18 339.796 233.378 340.659 232.332 341.059C209.229 349.888 187.914 354.345 168.844 354.345ZM136.838 275.497C131.74 275.497 126.673 276.336 121.701 278.207C112.621 281.625 106.792 288.58 105.287 297.792C103.325 309.802 109.245 323.08 120.735 332.446C131.413 341.149 162.666 358.542 225.215 336C214.364 322.191 174.849 275.497 136.838 275.497Z" fill="#6DB3F2"/>
<path d="M335.26 241.687C321.92 253.087 309.824 266.053 299.329 280.094C298.338 281.483 295.733 285.132 294.776 286.484C293.846 287.906 291.459 291.581 290.509 293.044C289.634 294.531 287.378 298.289 286.526 299.754C285.664 301.374 283.661 305.139 282.784 306.784C280.385 310.958 274.207 307.715 276.337 303.351C277.352 301.652 279.703 297.857 280.694 296.225C281.658 294.771 284.236 291.034 285.265 289.527C286.367 288.063 289.074 284.473 290.139 283.072C291.807 281.058 293.596 278.829 295.277 276.851C302.26 268.848 309.96 261.141 318.06 254.249C322.128 250.802 326.31 247.488 330.663 244.409C332.107 243.378 333.574 242.379 335.073 241.425C335.148 241.377 335.248 241.4 335.295 241.474C335.34 241.545 335.323 241.636 335.26 241.687Z" fill="#6DB3F2"/>
<path d="M289.278 291.497C305.144 281.662 320.94 271.66 336.313 261.051C329.034 266.915 321.604 272.601 314.127 278.222C306.642 283.835 299.116 289.381 291.518 294.863C289.233 296.412 286.957 293.018 289.278 291.497Z" fill="#6DB3F2"/>
<path d="M280.995 291.951C286.058 274.985 295.243 259.515 306.395 245.881C305.177 247.698 303.907 249.472 302.739 251.315C296.878 260.447 292.006 270.248 288.428 280.482C287.028 284.484 285.747 288.749 284.936 292.861C284.327 295.559 280.362 294.666 280.995 291.951Z" fill="#6DB3F2"/>
<g opacity="0.5">
<path d="M253.761 329.686C253.761 329.686 266.084 229.129 320.459 221.344C367.956 214.544 383.54 311.772 253.761 329.686Z" fill="#61D6FF"/>
</g>
<path d="M253.76 333.296C252.819 333.296 251.907 332.927 251.227 332.258C250.429 331.472 250.041 330.359 250.177 329.247C250.305 328.203 253.425 303.375 263.342 277.157C269.221 261.617 276.281 248.86 284.329 239.241C294.652 226.9 306.636 219.676 319.947 217.771C332.038 216.037 343.164 220.399 350.47 229.733C359.559 241.345 361.149 258.577 354.618 274.704C349.093 288.348 338.151 300.688 322.974 310.39C305.253 321.719 282.132 329.414 254.255 333.262C254.09 333.285 253.925 333.296 253.76 333.296ZM325.177 224.612C323.803 224.612 322.4 224.714 320.971 224.918C276.506 231.284 261.305 305.751 258.057 325.402C323.734 315.053 342.755 284.763 347.926 271.994C353.489 258.254 352.286 243.766 344.785 234.183C339.888 227.928 333.031 224.612 325.177 224.612Z" fill="#6DB3F2"/>
<path d="M250.295 394.177C250.295 394.177 256.263 409.123 261.696 418.553C267.129 427.976 279.622 419.01 279.622 419.01C291.348 417.144 290.227 410.401 288.539 406.582C287.827 404.975 287.02 403.881 287.02 403.881C297.354 400.037 302.973 394.114 305.75 387.668C306.271 386.454 306.698 385.218 307.034 383.979C310.937 369.475 302.815 353.884 302.815 353.884L258.167 388.141L250.295 394.177Z" fill="#FFD527"/>
<path d="M250.295 394.177C250.295 394.177 256.263 409.123 261.696 418.553C267.129 427.976 279.622 419.009 279.622 419.009C291.348 417.144 290.227 410.401 288.539 406.582C288.539 406.582 286.226 412.14 279.283 412.835C272.333 413.53 268.312 408.434 269.855 405.088C271.398 401.741 280.203 406.827 286.837 402.931C291.491 400.197 300.35 394.328 305.75 387.668C306.271 386.454 306.698 385.218 307.034 383.979C301.642 391.299 289.215 403.088 268.624 395.013C268.624 395.013 263.596 390.964 258.167 388.141L250.295 394.177Z" fill="#F7A623"/>
<path d="M290.593 406.161C284.196 407.881 277.396 408.187 270.954 406.586C268.825 406.073 266.788 405.202 264.858 404.215C264.117 403.836 263.824 402.929 264.203 402.188C264.562 401.481 265.396 401.197 266.11 401.474C273.281 403.915 281.305 402.704 288.123 399.719C292.759 397.656 295.428 404.581 290.593 406.161Z" fill="#591428"/>
<path d="M269.028 426.312C268.129 426.312 267.223 426.226 266.322 426.032C263.111 425.338 260.478 423.346 258.707 420.272C253.217 410.742 247.338 396.08 247.091 395.46C246.517 394.025 246.968 392.384 248.194 391.443L300.713 351.144C301.522 350.522 302.564 350.294 303.559 350.512C304.554 350.733 305.401 351.382 305.872 352.286C306.276 353.062 315.697 371.469 309.366 387.931C306.396 395.653 300.522 401.581 291.878 405.593C292.91 408.096 293.663 411.509 292.299 414.846C290.729 418.687 286.908 421.188 280.937 422.284C279.094 423.483 274.196 426.312 269.028 426.312ZM254.487 395.311C256.391 399.878 260.722 409.948 264.686 416.828C265.488 418.22 266.467 419.001 267.768 419.285C271.22 420.04 276.047 417.316 277.615 416.202C278.049 415.894 278.554 415.685 279.079 415.602C282.842 415.005 285.269 413.81 285.912 412.236C286.79 410.087 284.79 406.665 284.248 405.933C283.603 405.062 283.404 403.938 283.713 402.898C284.022 401.859 284.801 401.024 285.818 400.646C294.527 397.408 300.279 392.306 302.914 385.484C306.606 375.926 303.546 364.976 301.401 359.313L254.487 395.311Z" fill="#591428"/>
<path d="M193.191 353.917C193.191 353.917 168.671 359.443 148.57 362.381C148.57 362.381 166.53 377.68 177.074 382.922C187.618 388.163 193.191 353.917 193.191 353.917Z" fill="white"/>
<path d="M179.249 386.923C178.009 386.923 176.761 386.619 175.538 386.011C164.739 380.643 147.079 365.643 146.333 365.007C145.302 364.129 144.88 362.728 145.254 361.427C145.629 360.125 146.731 359.163 148.071 358.967C167.806 356.083 192.189 350.606 192.433 350.551C193.55 350.299 194.721 350.619 195.556 351.405C196.391 352.191 196.78 353.339 196.596 354.471C195.869 358.938 191.793 381.453 182.922 386.005C181.729 386.616 180.493 386.923 179.249 386.923ZM156.706 364.595C162.776 369.453 172.22 376.656 178.609 379.833C179.139 380.095 179.406 380.053 179.772 379.866C183.306 378.053 186.846 367.359 188.814 358.403C181.93 359.879 169.135 362.526 156.706 364.595Z" fill="#591428"/>
<path d="M294.85 309.156C295.933 315.106 301.395 319.267 307.435 318.97C348.191 316.964 378.146 278.333 378.215 269.434C378.288 259.98 366.387 256.847 366.387 256.847C366.387 256.847 365.975 250.539 358.739 249.019C351.533 247.504 344.191 256.912 344.191 256.912C331.788 250.316 330.033 266.969 330.033 266.969C320.525 276.754 297.547 292.005 297.547 292.005C297.547 292.005 295.377 297.102 294.653 304.953C294.517 306.426 294.61 307.836 294.85 309.156Z" fill="#FFD527"/>
<path d="M344.254 264.336C344.254 264.336 351.966 257.254 355.757 265.401C356.376 266.732 357.595 267.697 359.022 268.039C362.721 268.926 369.014 271.297 366.39 276.873C363.996 281.96 359.098 283.152 356.036 283.374C354.482 283.486 352.948 282.988 351.727 282.02C349.207 280.021 344.757 276.454 343.403 273.981C341.631 270.746 341.274 265.9 344.254 264.336Z" fill="#F7A623"/>
<path d="M293.125 292.122C299.168 287.862 305.186 283.455 311.055 278.951C316.787 274.5 322.733 269.884 327.806 264.806L326.945 266.644C327.21 264.553 327.701 262.606 328.459 260.635C331.409 252.769 338.254 250.081 345.649 254.171L341.743 255.002C342.611 253.922 343.519 252.961 344.499 252.01C348.109 248.582 352.737 245.413 358.021 245.792C363.455 246.183 368.536 250.356 369.386 255.871C369.434 256.097 369.461 256.415 369.485 256.643C369.487 256.649 367.177 253.843 367.177 253.844C368.613 254.237 369.83 254.727 371.156 255.34C377.02 257.946 382.15 263.703 381.346 270.526C379.857 278.366 372.31 287.039 367.026 292.73C353.09 307.197 334.875 318.323 314.757 321.293C309.714 321.98 304.562 322.046 299.547 321.253C298.257 321.049 297.377 319.838 297.581 318.548C297.761 317.41 298.725 316.591 299.835 316.554C309.249 316.266 318.551 315.013 327.391 311.704C340.612 306.824 352.538 298.371 362.327 288.232C365.589 284.827 368.622 281.182 371.181 277.339C372.804 274.73 374.504 272.266 375 269.39C375.103 264.417 369.923 261.235 365.596 259.85C365.596 259.851 363.287 257.046 363.288 257.05C363.112 255.772 362.23 254.098 360.992 253.274C359.743 252.395 357.976 251.791 356.377 252.014C352.732 252.583 349.034 255.947 346.617 258.849C345.671 260.038 344.027 260.346 342.733 259.654C341.413 258.95 340.072 258.499 338.999 258.474C335.317 258.456 333.98 263.142 333.293 266.229L333.192 266.797C333.117 267.651 332.877 268.551 332.26 269.133C329.488 271.96 326.606 274.407 323.692 276.837C317.878 281.649 311.893 286.173 305.829 290.633C302.8 292.853 299.772 295.04 296.683 297.211C293.29 299.464 289.796 294.602 293.125 292.122Z" fill="#591428"/>
<path d="M306.824 322.401C301.171 323.174 293.786 319.363 294.654 312.892C294.698 312.3 295.521 312.082 295.855 312.563C296.61 313.577 297.217 314.549 298.028 315.176C300.245 317.204 303.491 317.343 306.373 317.159C309.746 317.075 310.151 321.906 306.824 322.401Z" fill="#591428"/>
<path d="M181.87 413.016C184.355 423.766 193.563 420.906 193.563 420.906C197.393 421.547 201.405 420.661 201.405 420.661C201.405 420.661 212.218 427.544 227.843 424.996C243.461 422.448 249.437 400.121 249.437 400.121C249.437 400.121 275.009 398.514 292.89 381.915C297.251 377.87 301.153 372.937 304.116 366.919C306.13 362.838 307.49 358.708 308.326 354.616C310.162 345.689 309.524 336.888 307.721 328.931C305.661 319.838 302.08 311.849 298.925 306.011C298.925 306.011 298.925 306.011 298.924 306.004C295.55 299.756 292.664 295.977 292.664 295.977L204.544 316.921C201.594 319.48 199.443 323.141 197.912 327.237C193.784 338.271 194.174 352.507 195.717 357.215C195.834 357.582 195.963 357.886 196.092 358.134C197.458 360.68 200.56 368.18 200.108 374.476C199.957 376.575 199.413 378.536 198.267 380.135C196.699 382.351 193.998 383.87 189.636 384.083C172.675 384.923 179.378 402.267 181.87 413.016Z" fill="#FFD527"/>
<path d="M244.031 409.255C244.031 409.255 239.867 422.743 218.1 418.449C196.332 414.155 192.943 394.636 192.943 394.636L187.274 392.824C187.274 392.824 190.215 415.239 200.241 420.342C210.267 425.446 214.015 427.652 223.459 425.58C232.903 423.508 244.134 415.986 243.983 408.878" fill="#F7A623"/>
<path d="M198.267 380.135C209.978 390.691 229.396 400.867 250.126 398.157C270.165 395.535 283.73 389.804 292.89 381.915C297.516 377.927 301.12 373.021 304.09 366.969C304.099 366.952 304.108 366.936 304.116 366.919C304.136 366.88 304.153 366.841 304.172 366.801C306.209 362.62 307.95 357.899 309.509 352.54C309.509 352.54 309.141 353.31 308.326 354.616C304.292 361.076 289.26 380.554 253.699 382.699C231.328 384.046 212.74 379.305 200.108 374.476C199.957 376.575 199.413 378.536 198.267 380.135Z" fill="#591428"/>
<path d="M195.717 357.215C215.985 365.95 245.955 372.75 279.074 359.852C288.578 356.151 296.843 349.706 302.286 341.081C304.458 337.639 306.401 333.596 307.721 328.931C305.662 319.838 302.08 311.849 298.925 306.011C298.925 306.011 300.905 322.689 279.441 334.137C261.886 343.496 218.05 348.23 197.912 327.237C193.784 338.271 194.174 352.507 195.717 357.215Z" fill="#591428"/>
<path d="M222.271 394.166C212.84 391.774 204.461 385.417 199.549 377.018L198.463 375.027C197.8 373.865 197.181 372.111 196.621 370.886C194.966 366.637 201.059 364.033 202.978 368.184C203.463 369.414 203.89 371.035 204.441 372.222C204.597 372.568 205.277 374.057 205.411 374.36C205.746 374.941 206.245 375.811 206.579 376.396C206.688 376.608 206.938 377.002 207.082 377.19C207.71 378.123 208.613 379.376 209.352 380.201C209.702 380.646 210.217 381.216 210.623 381.608C214.1 385.252 218.543 388.13 223.33 389.76C226.225 390.571 225.218 394.776 222.271 394.166Z" fill="#591428"/>
<path d="M202.208 424.3C196.988 420.7 193.469 414.691 192.424 408.489C192.177 407.068 194.166 406.432 194.791 407.721C196.956 412.656 200.876 416.47 205.26 419.467C208.421 421.603 205.479 426.246 202.208 424.3Z" fill="#591428"/>
<path d="M294.442 294.617C318.899 325.528 321.805 370.01 284.828 392.362C274.106 398.739 262.032 402.448 249.654 403.563L252.77 401.013C251.99 403.747 251.004 406.242 249.836 408.805C246.234 416.481 240.868 424.04 232.602 427.248C222.461 430.715 208.779 428.927 199.556 423.574L202.15 424.032C201.672 424.132 201.351 424.185 200.964 424.246C198.293 424.64 195.737 424.742 192.994 424.313L194.584 424.204C189.037 425.806 182.928 423.586 180.225 418.373C179.415 416.954 178.902 415.278 178.49 413.724C176.715 405.66 172.816 395.965 176.568 387.793C178.3 384.06 182.327 381.684 186.194 381.023C188.265 380.602 190.734 380.731 192.684 380.082C200.067 377.631 195.57 364.741 193.021 359.702C191.206 355.619 191.257 350.911 191.19 346.651C191.451 335.496 193.601 322.232 202.284 314.316C205.804 311.404 210.175 316.333 206.865 319.475C201.544 324.329 199.603 332.093 198.62 339.102C197.975 344.557 197.707 350.45 198.887 355.767C198.966 356.081 199.03 356.246 199.126 356.488C199.913 357.99 200.56 359.521 201.126 361.038C203.144 366.723 204.696 373.141 202.63 379.156C200.812 384.529 195.409 387.324 190.053 387.509C187.334 387.677 184.013 388.2 182.742 390.874C181.985 392.359 181.787 394.603 181.967 396.951C182.389 402.02 184.003 407.033 185.21 412.16C186.022 415.538 187.506 417.663 190.681 417.798C191.256 417.83 192.047 417.731 192.538 417.615L194.128 417.507C196.173 417.833 198.59 417.696 200.664 417.294C201.717 417.067 202.691 417.364 203.531 417.91L203.884 418.103C210.957 421.765 219.262 422.823 227.098 421.614C232.603 420.746 236.755 416.997 240.069 412.153C242.064 409.221 243.703 405.911 244.981 402.564C245.385 401.514 245.811 400.265 246.106 399.228C246.487 397.789 247.727 396.806 249.129 396.684C251.885 396.441 254.762 395.933 257.495 395.352C277.494 391.076 296.357 379.872 303.331 359.756C309.762 341.39 303.857 321.398 295.163 304.773C293.853 302.224 292.381 299.681 290.849 297.275C289.374 294.954 292.586 292.494 294.442 294.617Z" fill="#591428"/>
<path d="M175.773 374.597C182.951 394.642 199.996 405.135 210.98 385.274C210.98 385.274 215.709 386.906 218.181 384.032C219.194 382.86 219.83 380.915 219.594 377.795C218.795 367.067 213.571 349.598 220.654 337.41L232.749 320.433L200.622 303.725C200.622 303.725 179.311 310.188 173.243 345.095C171.418 355.592 172.682 365.976 175.773 374.597Z" fill="#FFD527"/>
<path d="M175.773 374.598C182.951 394.642 199.996 405.135 210.98 385.274C210.98 385.274 215.709 386.906 218.181 384.032C218.181 384.032 216.592 377.216 210.814 376.684C205.036 376.152 204.017 380.991 199.025 384.789C194.027 388.589 184.611 390.898 176.613 376.063C176.313 375.51 176.035 375.016 175.773 374.598Z" fill="#F7A623"/>
<path d="M201.521 306.699C196.918 308.477 192.973 311.737 189.67 315.354C182.71 323.038 178.733 333.365 176.751 343.482C174.476 353.671 175.342 364.493 178.95 374.246C181.637 381.179 185.698 388.184 192.278 391.643C199.357 395.279 205.021 389.784 208.262 383.773L211.992 382.341C212.977 382.654 214.87 382.814 215.639 382.176C216.481 381.376 216.571 379.752 216.524 378.377C216.466 377.305 216.362 376.22 216.235 375.146C214.798 362.806 211.309 347.43 218.858 336.37C220.204 334.345 223.339 335.897 222.545 338.192C222.199 339.258 221.649 340.332 221.375 341.42L220.921 342.922C220.819 343.464 220.534 344.727 220.419 345.24C219.349 351.518 219.821 357.695 220.782 364.101C221.353 368.225 222.44 373.947 222.705 378.071C223.346 385.591 218.223 390.45 210.602 388.402C210.449 388.36 210.12 388.263 209.966 388.211L213.696 386.779C206.297 400.601 193.154 403.388 182.142 391.552C172.258 380.469 168.605 365.307 169.434 350.818C169.626 346.611 170.675 342.167 171.546 338.085C172.243 335.71 173.172 332.157 174.116 329.889C178.483 317.819 186.836 306.075 199.047 300.995C203.353 298.988 205.929 305.119 201.521 306.699Z" fill="#591428"/>
<path d="M187.598 301.025C187.598 301.025 187.511 316.792 202.18 316.026C202.18 316.026 205.249 327.975 220.848 324.516C220.848 324.516 224.133 331.906 235.528 329.652C235.528 329.652 242.373 332.934 250.724 331.171C259.23 330.471 264.984 326.078 264.984 326.078C276.548 324.979 277.583 316.957 277.583 316.957C293.519 315.81 293.043 303.483 293.043 303.483C307.318 300.021 302.724 284.938 302.724 284.938C302.724 284.938 256.488 266.945 187.598 301.025Z" fill="#EDEDED"/>
<path d="M245.691 335.299C240.848 335.299 236.968 334.09 235.123 333.39C226.265 334.787 221.458 331.146 219.202 328.483C208.076 330.059 202.117 324.432 199.707 319.616C195.713 319.346 192.354 317.932 189.696 315.395C184.004 309.962 183.986 301.368 183.988 301.005C183.996 299.64 184.773 298.395 185.997 297.789C222.226 279.867 252.24 276.353 271.037 276.592C291.626 276.834 303.536 281.38 304.033 281.573C305.064 281.974 305.855 282.827 306.177 283.886C306.283 284.233 308.724 292.474 304.824 299.308C303.003 302.499 300.189 304.814 296.439 306.216C295.506 311.519 291.407 318.616 280.294 320.288C278.887 323.503 275.289 328.405 266.288 329.564C264.212 330.923 258.68 334.084 251.246 334.749C249.303 335.142 247.434 335.299 245.691 335.299ZM235.528 326.041C236.066 326.041 236.599 326.162 237.089 326.397C237.132 326.416 243.013 329.108 249.978 327.639C250.126 327.607 250.277 327.585 250.428 327.573C257.693 326.975 262.756 323.237 262.806 323.199C263.338 322.801 263.982 322.547 264.643 322.484C272.673 321.721 273.868 317.169 274.005 316.464C274.17 314.711 275.563 313.483 277.323 313.357C289.636 312.47 289.449 303.984 289.435 303.623C289.369 301.906 290.521 300.38 292.191 299.975C295.253 299.232 297.328 297.854 298.535 295.76C300.089 293.065 299.923 289.71 299.622 287.711C295.706 286.521 285.52 283.939 270.538 283.807C253.001 283.646 225.168 286.927 191.421 303.176C191.75 305.192 192.585 308.189 194.707 310.197C196.463 311.858 198.846 312.589 201.992 312.421C203.699 312.34 205.249 313.464 205.676 315.129C205.913 315.966 208.419 323.577 220.066 320.991C221.788 320.609 223.475 321.386 224.134 323.019C224.468 323.655 226.913 327.677 234.828 326.11C235.06 326.064 235.294 326.041 235.528 326.041Z" fill="#591428"/>
<path d="M292.128 293.433C251.293 314.845 171.618 317.188 148.114 263.671C124.609 210.146 150.344 133.627 233.016 129.39C315.689 125.146 317.904 198.678 317.904 198.678C318.797 199.552 319.648 200.439 320.458 201.346C324.907 206.261 328.254 211.659 330.506 217.346C340.651 242.994 328.337 274.44 292.128 293.433Z" fill="#FFD527"/>
<g opacity="0.6">
<path d="M182.221 155.45C195.937 147.528 212.185 143.034 230.514 142.096C233.369 141.949 236.202 141.89 238.923 141.925C268.972 142.312 290.54 153.614 303.022 175.525C306.652 181.899 308.969 188.246 310.451 193.657C309.567 187.798 307.309 177.795 301.575 167.727C289.834 147.116 269.545 136.484 241.279 136.121C238.72 136.088 236.055 136.143 233.369 136.281C216.128 137.164 200.844 141.391 187.942 148.843C179.22 153.881 171.714 160.301 165.533 167.994C170.507 163.191 176.079 158.998 182.221 155.45Z" fill="white"/>
</g>
<path d="M326.547 241.888C323.839 259.277 310.465 276.032 288.922 287.327C272.409 295.981 249.69 300.989 228.158 300.712C211.476 300.498 196.158 297.154 183.871 291.048C170.124 284.22 160.221 274.073 154.429 260.895C151.908 255.163 150.011 249.211 148.708 243.156C149.136 244.238 149.578 245.307 150.047 246.368C173.096 298.852 251.231 296.551 291.275 275.557C308.49 266.525 320.194 254.621 326.547 241.888Z" fill="#F7A623"/>
<path d="M187.434 270.792C200.629 270.406 211.135 263.564 210.899 255.512C210.663 247.459 199.775 241.245 186.58 241.631C173.384 242.018 162.879 248.86 163.115 256.912C163.351 264.965 174.239 271.179 187.434 270.792Z" fill="#FF765F"/>
<path d="M332.952 220.445C331.16 224.007 327.954 227.575 323.703 230.407C314.78 236.333 304.613 236.727 300.992 231.281C297.378 225.836 301.673 216.614 310.596 210.688C315.035 207.734 319.781 206.155 323.873 205.989C327.893 210.43 330.917 215.307 332.952 220.445Z" fill="#FF765F"/>
<path d="M265.593 219.351C265.593 219.351 260.352 227.003 242.178 225.928C242.178 225.928 253.55 248.723 263.143 246.505C272.736 244.287 267.183 232.651 265.593 219.351Z" fill="#591428"/>
<path d="M267.871 243.029C267.871 243.029 265.51 225.559 246.329 230.271C246.329 230.271 252.169 240.808 258.006 243.562C263.844 246.316 267.357 244.599 267.871 243.029Z" fill="#FF765F"/>
<path d="M261.841 249.033C251.364 249.033 241.229 229.358 240.048 226.991C239.669 226.23 239.724 225.326 240.191 224.617C240.659 223.908 241.471 223.512 242.318 223.552C258.655 224.523 263.603 218.041 263.651 217.975C264.211 217.157 265.208 216.786 266.171 217.024C267.134 217.26 267.838 218.084 267.956 219.068C268.334 222.227 268.939 225.276 269.524 228.225C271.319 237.272 273.176 246.628 263.679 248.824C263.067 248.965 262.453 249.033 261.841 249.033ZM246.231 228.406C250.412 235.595 257.646 245.321 262.607 244.186C267.177 243.129 266.853 239.224 264.855 229.151C264.532 227.523 264.184 225.772 263.871 223.957C260.681 226.012 255.146 228.296 246.231 228.406Z" fill="#591428"/>
<path d="M215.921 245.739C225.127 244.007 230.964 233.963 228.958 223.304C226.953 212.645 217.865 205.408 208.659 207.14C199.454 208.872 193.617 218.916 195.623 229.575C197.628 240.234 206.716 247.471 215.921 245.739Z" fill="#591428"/>
<path d="M208.921 232.474C212.672 231.768 215.051 227.674 214.234 223.331C213.416 218.987 209.713 216.038 205.961 216.743C202.21 217.449 199.831 221.543 200.648 225.886C201.466 230.23 205.169 233.18 208.921 232.474Z" fill="white"/>
<g opacity="0.35">
<path d="M223.496 233.634C223.894 230.746 222.195 228.126 219.701 227.782C217.207 227.438 214.862 229.5 214.464 232.388C214.066 235.276 215.765 237.896 218.259 238.24C220.753 238.584 223.098 236.522 223.496 233.634Z" fill="white"/>
</g>
<path d="M289.775 226.378C298.326 224.769 303.748 215.438 301.885 205.536C300.023 195.635 291.58 188.912 283.029 190.521C274.477 192.129 269.055 201.461 270.918 211.362C272.781 221.264 281.223 227.987 289.775 226.378Z" fill="#591428"/>
<path d="M283.271 214.055C286.756 213.4 288.966 209.597 288.207 205.562C287.447 201.527 284.007 198.787 280.522 199.442C277.037 200.098 274.827 203.901 275.586 207.936C276.346 211.971 279.786 214.711 283.271 214.055Z" fill="white"/>
<g opacity="0.35">
<path d="M296.804 215.132C297.174 212.449 295.596 210.016 293.279 209.696C290.962 209.377 288.784 211.292 288.414 213.975C288.044 216.658 289.622 219.092 291.939 219.411C294.256 219.731 296.435 217.815 296.804 215.132Z" fill="white"/>
</g>
<path d="M229.788 311.13C216.342 311.131 202.62 309.229 189.728 304.712C168.575 297.301 153.093 283.588 144.955 265.057C131.567 234.568 133.85 198.45 150.913 170.799C167.619 143.727 196.714 127.797 232.839 125.944C259.869 124.559 281.466 131.122 297.017 145.457C317.624 164.451 320.801 190.759 321.276 197.166C333.774 209.912 339.285 226.15 336.809 243.035C333.692 264.28 317.99 283.762 293.73 296.487C277.855 304.813 254.286 311.129 229.788 311.13ZM239.775 132.662C237.622 132.662 235.429 132.72 233.193 132.835C199.4 134.568 172.264 149.337 156.785 174.423C140.895 200.173 138.782 233.839 151.273 262.282C158.726 279.257 172.433 291.342 192.01 298.2C224.913 309.728 266.475 302.99 290.525 290.376C312.808 278.689 327.189 261.069 329.982 242.034C332.192 226.965 327.047 212.444 315.495 201.144C314.858 200.521 314.487 199.676 314.459 198.786C314.449 198.498 313.275 169.777 292.284 150.478C279.412 138.643 261.768 132.662 239.775 132.662Z" fill="#591428"/>
<path d="M251.495 98.7638C251.796 81.0765 259.85 63.005 274.773 55.9671C276.434 55.2196 278.251 54.6705 280.186 54.3755C289.635 52.9346 298.247 58.0153 299.422 65.7234C300.598 73.4315 293.891 80.8481 284.443 82.2891C280.551 82.8826 276.802 82.3676 273.655 81.0204C269.43 86.2355 267.154 95.2645 266.07 100.369C263.274 114.339 262.822 129.387 263.546 143.725C263.801 147.875 257.938 148.812 256.876 144.798C253.396 129.597 251.195 114.53 251.495 98.7638Z" fill="#682942"/>
<path d="M170.354 126.673C163.946 110.184 164.571 90.4094 175.726 78.2524C176.981 76.9327 178.456 75.7373 180.136 74.7327C188.339 69.8269 198.233 71.2747 202.235 77.9666C206.237 84.6583 202.832 94.0599 194.629 98.9658C191.25 100.986 187.585 101.927 184.162 101.869C182.222 108.294 183.529 117.514 184.455 122.649C187.147 136.64 192.417 150.742 198.508 163.742C200.312 167.488 195.238 170.572 192.738 167.256C183.769 154.5 176.036 141.382 170.354 126.673Z" fill="#682942"/>
<path d="M181.209 140.04C184.27 140.04 186.752 137.569 186.752 134.52C186.752 131.471 184.27 129 181.209 129C178.147 129 175.666 131.471 175.666 134.52C175.666 137.569 178.147 140.04 181.209 140.04Z" fill="#3B82F6"/>
<path d="M204.587 207.301C207.648 207.301 210.13 204.83 210.13 201.781C210.13 198.732 207.648 196.261 204.587 196.261C201.526 196.261 199.044 198.732 199.044 201.781C199.044 204.83 201.526 207.301 204.587 207.301Z" fill="#3B82F6"/>
<path d="M143.543 202.127C146.604 202.127 149.086 199.656 149.086 196.607C149.086 193.559 146.604 191.087 143.543 191.087C140.482 191.087 138 193.559 138 196.607C138 199.656 140.482 202.127 143.543 202.127Z" fill="#3B82F6"/>
<path d="M180.096 275.525C180.799 272.558 178.954 269.585 175.975 268.884C172.996 268.184 170.01 270.021 169.307 272.988C168.603 275.955 170.448 278.928 173.427 279.629C176.407 280.33 179.392 278.492 180.096 275.525Z" fill="#3B82F6"/>
<path d="M247.448 140.04C250.509 140.04 252.991 137.569 252.991 134.52C252.991 131.471 250.509 129 247.448 129C244.387 129 241.905 131.471 241.905 134.52C241.905 137.569 244.387 140.04 247.448 140.04Z" fill="#3B82F6"/>
<path d="M245.691 325.887C248.519 324.721 249.862 321.492 248.691 318.675C247.519 315.858 244.276 314.52 241.448 315.687C238.62 316.854 237.277 320.083 238.448 322.9C239.62 325.717 242.862 327.054 245.691 325.887Z" fill="#3B82F6"/>
<path d="M314.986 140.04C318.048 140.04 320.529 137.569 320.529 134.52C320.529 131.471 318.048 129 314.986 129C311.925 129 309.443 131.471 309.443 134.52C309.443 137.569 311.925 140.04 314.986 140.04Z" fill="#3B82F6"/>
<path d="M277.321 207.301C280.382 207.301 282.864 204.83 282.864 201.781C282.864 198.732 280.382 196.261 277.321 196.261C274.259 196.261 271.778 198.732 271.778 201.781C271.778 204.83 274.259 207.301 277.321 207.301Z" fill="#3B82F6"/>
<path d="M347.457 207.301C350.518 207.301 353 204.83 353 201.781C353 198.732 350.518 196.261 347.457 196.261C344.395 196.261 341.914 198.732 341.914 201.781C341.914 204.83 344.395 207.301 347.457 207.301Z" fill="#3B82F6"/>
<path d="M316.576 275.105C317.067 272.095 315.015 269.26 311.993 268.771C308.971 268.283 306.124 270.326 305.633 273.336C305.143 276.345 307.195 279.181 310.217 279.669C313.239 280.158 316.086 278.114 316.576 275.105Z" fill="#3B82F6"/>
<path d="M243.575 321.571L243.205 321.322L174.222 274.651L142.894 196.571L180.992 133.921L315.395 133.967L315.571 134.334L348.185 201.835L348.043 202.119L311.605 274.656L311.468 274.751L243.575 321.571ZM175.28 273.805L243.567 320.002L310.593 273.782L346.739 201.825L314.578 135.261H247.744L181.722 135.214L144.34 196.69L175.28 273.805Z" fill="#3B82F6"/>
<path d="M243.615 323.009L203.874 201.691L204.04 201.433L247.851 133.248L278.009 201.735L277.946 201.957L243.615 323.009ZM205.3 201.873L243.526 318.565L276.632 201.828L247.635 135.981L205.3 201.873Z" fill="#3B82F6"/>
<path d="M277.616 202.522H204.587L143.71 197.369L143.819 196.081L204.642 201.231L277.762 201.229L347.752 201.183V202.476L277.616 202.522Z" fill="#3B82F6"/>
<path d="M173.776 274.875L174.153 273.979L205.483 199.288L180.751 134.799L181.963 134.336L206.88 199.311L206.78 199.548L175.727 273.581L310.095 273.572L276.589 199.255L316.077 134.186L317.188 134.855L278.052 199.344L312.102 274.866L173.776 274.875Z" fill="#3B82F6"/>
<path d="M165.935 331H145.024C137.291 331 131 326.138 131 320.162V296.812C131 295.259 132.629 294 134.639 294C136.649 294 138.279 295.259 138.279 296.812V320.162C138.279 323.037 141.305 325.375 145.024 325.375H165.935C167.945 325.375 169.574 326.634 169.574 328.187C169.574 329.741 167.945 331 165.935 331Z" fill="#3B82F6"/>
<path d="M326.975 331H306.065C304.054 331 302.425 329.741 302.425 328.188C302.425 326.634 304.054 325.375 306.065 325.375H326.975C330.695 325.375 333.721 323.037 333.721 320.162V296.812C333.721 295.259 335.35 294 337.361 294C339.371 294 341 295.259 341 296.812V320.162C341 326.138 334.709 331 326.975 331Z" fill="#3B82F6"/>
<path d="M134.639 146C132.629 146 131 144.741 131 143.188V119.838C131 113.862 137.291 109 145.024 109H165.935C167.945 109 169.574 110.259 169.574 111.812C169.574 113.366 167.945 114.625 165.935 114.625H145.024C141.304 114.625 138.279 116.963 138.279 119.838V143.188C138.279 144.741 136.65 146 134.639 146Z" fill="#3B82F6"/>
<path d="M337.361 146C335.35 146 333.721 144.741 333.721 143.188V119.838C333.721 116.963 330.695 114.625 326.975 114.625H306.065C304.054 114.625 302.425 113.366 302.425 111.812C302.425 110.259 304.054 109 306.065 109H326.975C334.709 109 341 113.862 341 119.838V143.188C341 144.741 339.371 146 337.361 146Z" fill="#3B82F6"/>
</svg>
